<?xml version="1.0" encoding="UTF-8"?>
<!-- Generator: Adobe Illustrator 16.0.0, SVG Export Plug-In . SVG Version: 6.00 Build 0)  -->
<!DOCTYPE svg PUBLIC "-//W3C//DTD SVG 1.1//EN" "http://www.w3.org/Graphics/SVG/1.1/DTD/svg11.dtd">
<svg version="1.1" id="Layer_1" xmlns="http://www.w3.org/2000/svg" xmlns:xlink="http://www.w3.org/1999/xlink" x="0px" y="0px" width="320px" height="320px" viewBox="0 0 320 320" enable-background="new 0 0 320 320" xml:space="preserve"><link xmlns="" type="text/css" id="dark-mode" rel="stylesheet" href=""/><style xmlns="" type="text/css" id="dark-mode-custom-style"/>
<g id="bopensea" opacity="0.4">
	
		<g id="opensea-logomark-flat-colored-blue" transform="translate(160.000000, 160.000000) scale(-1, 1) translate(-160.000000, -160.000000) ">
		<g>
			<path fill="#054F84" d="M160,0c88.276,0,160,71.724,160,160c0,88.275-71.724,160-160,160C71.725,320,0,248.275,0,160     C0,71.724,71.725,0,160,0z M159.448,276.414c63.448,0,115.035-51.586,115.311-115.586c0-63.725-51.586-115.587-115.311-115.587     c-63.724,0-115.311,51.862-115.311,115.587C44.138,224.828,95.725,276.414,159.448,276.414z"/>
		</g>
	</g>
</g>
<g>
	<path fill-rule="evenodd" clip-rule="evenodd" d="M241.592,161.746C255,161.545,255,161.545,255,174.81   c0,6.916-0.402,13.862,0.129,20.735c0.416,5.386-1.592,7.019-6.477,6.11c-5.954-1.108-7.168,1.455-7.127,7.15   c0.273,37.618,0.142,75.24,0.142,112.861c-4.444,0-8.89,0-13.334,0c-0.093-13.335-0.185-26.672-0.277-40.007c0-4.44,0-8.88,0-13.32   c0.093-3.044,0.263-6.087,0.266-9.131c0.023-21.631-0.028-43.262,0.07-64.893c0.012-2.361-1.407-6.65,3.247-5.84   c10.707,1.865,10.593-4.504,10.097-11.929c-0.332-4.968-0.01-9.978,0.02-14.969L241.592,161.746z"/>
	<path fill-rule="evenodd" clip-rule="evenodd" d="M175,321.667c0-6.06-0.639-12.206,0.158-18.159   c1.045-7.797-2.268-8.97-9.062-8.659c-11.819,0.544-23.722-0.438-35.514,0.356c-7.946,0.535-10.083-2.388-8.943-9.487   c0.217-1.346,0.081-2.749,0.107-4.126l-0.168,0.163c17.495-0.029,34.988-0.067,52.482-0.085c13.85-0.015,13.85-0.003,14.551,13.337   c0,4.439,0,8.88,0,13.32c-0.094,4.446-0.186,8.893-0.278,13.34C183.889,321.667,179.444,321.667,175,321.667z"/>
	<path fill-rule="evenodd" clip-rule="evenodd" fill="#DAB080" d="M188.333,321.667c0.093-4.447,0.185-8.894,0.278-13.342   c12.99,0.017,12.99,0.017,13.086-12.541c0.002-0.278,0.012-0.555,0.019-0.833l-0.098,0.098   c13.304-0.127,13.304-0.127,13.431-13.431l-0.098,0.098c4.368-0.02,8.736-0.038,13.104-0.056   c0.093,13.335,0.185,26.672,0.277,40.007C215,321.667,201.667,321.667,188.333,321.667z"/>
	<path fill-rule="evenodd" clip-rule="evenodd" d="M55.031,241.697c-0.077-13.364-0.074-13.174,13.249-13.433   c8.77-0.169,20.507,3.793,25.441-1.644c4.323-4.763,1.211-16.335,1.263-24.899c0.067-11.106-0.266-22.222,0.138-33.313   c0.194-5.313-1.151-7.764-6.723-6.75c-5.304,0.964-7.656-1.033-6.788-6.603c0.338-2.168,0.055-4.434,0.055-6.655   c0-13.125,0-13.125-13.228-13.585l0.08,0.08c-0.062-4.424-0.169-8.849-0.178-13.274c-0.023-13.193-0.008-13.193,13.263-13.348   l0.11,0.109c0.021,15.728-1.541,13.171,13.063,13.247c26.842,0.139,53.685,0.101,80.528,0.015   c15.445-0.049,12.66,1.706,13.064-13.345c0,0-0.094,0.093-0.093,0.093c6.638,0.166,12.91-2.598,14.374,9.466   c1.004,8.268,13.099,2.228,20.047,3.727c3.474,0.75,5.84-0.485,5.68-4.826c-0.269-7.21-0.185-14.432-0.249-21.65   c0.053-4.464,0.105-8.929,0.158-13.394l0.11-0.109c13.271,0.156,13.279,0.156,13.269,13.221   c-0.018,22.307-0.048,44.614-0.073,66.92l0.163-0.167c-8.876-0.023-17.75-0.046-26.625-0.07   c-0.336-13.578-0.336-13.578-13.399-12.907c-4.406-0.09-8.813-0.244-13.221-0.256c-13.325-0.034-13.325-0.013-13.634,13.141   c-8.804,0.007-17.608,0.015-26.413,0.021c-0.336-13.578-0.336-13.578-13.399-12.907c-4.988-0.09-9.976-0.241-14.964-0.256   c-12.051-0.037-12.053-0.013-11.721,11.721c0.016,0.55,0.149,1.098,0.228,1.647c0,4.436,0.002,8.87,0.003,13.306   c0,4.429,0,8.857,0,13.286c-0.092,8.853-0.234,17.707-0.265,26.56c-0.045,13.468-0.011,13.468,13.27,13.468   c13.248,0,13.248,0,13.476,13.334c-22.249,0.093-44.498,0.184-66.747,0.274c-4.461-0.105-8.923-0.21-13.384-0.315L55.031,241.697z"/>
	<path fill-rule="evenodd" clip-rule="evenodd" d="M81.604,108.271c0.356-6.816-0.625-14.663,10.309-13.283   c3.595,0.454,3.415-2.22,3.022-4.274c-1.678-8.766,2.973-10.182,10.08-9.072c1.078,0.169,2.205,0.018,3.309,0.015l0.023,0.024   C108.313,95,108.313,95,121.339,95c18.02,0,36.04,0,54.06,0c13.021,0,13.021,0,12.877,13.39l0.094-0.093   c-35.552,0.028-71.104,0.056-106.655,0.083L81.604,108.271z"/>
	<path fill-rule="evenodd" clip-rule="evenodd" d="M121.657,68.324C121.681,55,121.681,55,134.988,55   c23.324,0,46.661,0.407,69.967-0.22c8.241-0.221,11.748,1.715,10.076,10.166c-0.21,1.064,0.01,2.213,0.03,3.324l-0.108,0.11   c-4.465,0.052-8.93,0.106-13.394,0.158c-26.626-0.063-53.253-0.127-79.879-0.19L121.657,68.324z"/>
	<path fill-rule="evenodd" clip-rule="evenodd" d="M121.747,281.592c-1.653,0.024-3.342-0.161-4.953,0.112   c-6.554,1.108-9.919-0.91-8.473-8.123c0.913-4.555-1.412-5.402-5.501-5.331c-12.95,0.225-25.939-0.465-38.849,0.287   c-7.832,0.457-10.187-2.238-9-9.438c0.222-1.343,0.051-2.751,0.061-4.13l-0.071,0.072c4.461-0.106,8.923-0.21,13.384-0.316   c22.249,0.092,44.498,0.185,66.747,0.275c-0.03,1.936-0.353,3.918-0.037,5.794c1.048,6.24-1.401,8.667-7.594,7.553   c-4.789-0.863-6.388,1.351-5.849,5.952c0.288,2.451-0.002,4.969-0.032,7.456L121.747,281.592z"/>
	<path fill-rule="evenodd" clip-rule="evenodd" fill="#EDEDED" d="M68.439,134.814c-0.036,24.136-0.121,48.27-0.062,72.404   c0.011,4.554-0.007,7.906-6.339,7.975c-6.383,0.072-7.177-2.806-7.121-8.067c0.208-19.418,0.05-38.838,0.092-58.257   c0.036-16.959-1.204-13.288,13.509-13.975L68.439,134.814z"/>
	<path fill-rule="evenodd" clip-rule="evenodd" d="M108.324,81.657c0.023-13.309,0.023-13.309,13.333-13.333l0.024,0.024   c-0.037,13.296-0.037,13.296-13.333,13.333L108.324,81.657z"/>
	<path fill-rule="evenodd" clip-rule="evenodd" d="M215.062,68.27c13.179,0.156,13.179,0.156,13.335,13.335l-0.11,0.109   c-4.418-0.028-8.837-0.055-13.255-0.083l0.005,0.005c-0.028-4.419-0.056-8.836-0.083-13.255L215.062,68.27z"/>
	<path fill-rule="evenodd" clip-rule="evenodd" d="M55.031,254.969c-2.452,0.012-4.955-0.294-7.345,0.097   c-5.331,0.87-6.082-1.552-6.216-6.318c-0.156-5.544,1.067-8.151,7.033-7.136c2.119,0.359,4.349,0.075,6.528,0.086l-0.071-0.071   c0,4.471,0,8.943,0,13.415L55.031,254.969z"/>
	<path fill-rule="evenodd" clip-rule="evenodd" fill="#DAB080" d="M121.579,281.755c0.029-2.487,0.319-5.005,0.032-7.456   c-0.539-4.602,1.061-6.815,5.849-5.952c6.193,1.114,8.643-1.313,7.594-7.553c-0.316-1.876,0.006-3.858,0.037-5.794l-0.189,0.066   c11.652-0.022,23.315-0.353,34.951,0.063c5.853,0.208,5.182-3.132,5.182-6.796c0-3.663,0.671-7.003-5.182-6.795   c-11.635,0.415-23.299,0.085-34.951,0.062l0.189,0.067c-0.228-13.334-0.228-13.334-13.476-13.334c-13.281,0-13.315,0-13.27-13.468   c0.03-8.853,0.172-17.707,0.265-26.56c9.998,0.01,20.018-0.394,29.984,0.164c7.326,0.41,10.813-1.385,9.877-9.483   c-0.665-5.749-0.05-11.646-0.007-17.478c8.805-0.007,17.609-0.015,26.414-0.021l0.278,0.64c-0.027,4.304-0.056,8.605-0.084,12.909   c-0.023,1.378,0.117,2.784-0.097,4.134c-1.13,7.139,1.449,9.937,8.988,9.316c8.227-0.676,16.555-0.335,24.828-0.086   c4.619,0.14,6.444-1.488,6.279-6.195c-0.242-6.89,0.016-13.795,0.06-20.696c8.875,0.024,17.749,0.047,26.625,0.07   c-0.029,4.991-0.352,10.001-0.02,14.969c0.496,7.425,0.61,13.794-10.097,11.929c-4.654-0.811-3.235,3.479-3.247,5.84   c-0.099,21.631-0.047,43.262-0.07,64.893c-0.003,3.044-0.173,6.087-0.266,9.133c-12.99-0.017-12.99-0.017-13.086,12.54   c-0.001,0.278-0.012,0.556-0.019,0.834l0.098-0.098c-13.304,0.127-13.304,0.127-13.431,13.431l0.098-0.098   c-4.369,0.02-8.737,0.037-13.104,0.056c-0.701-13.34-0.701-13.352-14.551-13.337C156.566,281.688,139.073,281.726,121.579,281.755z    M148.988,201.667c-2.479,0-5.004,0.301-7.43-0.061c-5.672-0.847-6.811,1.729-6.727,6.901c0.077,4.715,0.75,7.19,6.246,6.595   c4.629-0.501,9.399-0.5,14.03-0.002c5.691,0.612,6.6-1.807,6.767-6.934c0.188-5.789-2.047-7.174-7.104-6.539   C152.871,201.867,150.917,201.667,148.988,201.667z"/>
	<path fill-rule="evenodd" clip-rule="evenodd" fill="#FEC826" d="M214.951,281.716c0.007-0.278,0.018-0.556,0.019-0.834   c0.096-12.557,0.096-12.557,13.086-12.54c0,4.438,0,8.878,0,13.318C223.688,281.678,219.319,281.696,214.951,281.716z"/>
	<path fill-rule="evenodd" clip-rule="evenodd" fill="#FEC826" d="M188.611,295.007c4.367-0.019,8.735-0.036,13.104-0.056   c-0.007,0.278-0.017,0.555-0.019,0.833c-0.096,12.558-0.096,12.558-13.086,12.541C188.611,303.887,188.611,299.446,188.611,295.007   z"/>
	<path fill-rule="evenodd" clip-rule="evenodd" fill="#FEC826" d="M201.618,295.049c0.127-13.304,0.127-13.304,13.431-13.431   C214.922,294.922,214.922,294.922,201.618,295.049z"/>
	<path fill-rule="evenodd" clip-rule="evenodd" fill="#515151" d="M108.347,81.681c13.297-0.037,13.297-0.037,13.333-13.333   c26.626,0.063,53.253,0.127,79.879,0.19c0.27,13.172,0.27,13.172,13.477,13.097c0,0-0.005-0.005-0.006-0.005   c-0.074,13.205-0.074,13.205,13.098,13.477c0.064,7.218-0.02,14.44,0.249,21.65c0.16,4.341-2.206,5.576-5.68,4.826   c-6.948-1.499-19.043,4.541-20.047-3.727c-1.464-12.064-7.736-9.3-14.374-9.466C188.42,95,188.42,95,175.398,95   c-18.02,0-36.04,0-54.06,0C108.313,95,108.313,95,108.347,81.681z"/>
	<path fill-rule="evenodd" clip-rule="evenodd" fill="#353535" d="M81.714,108.38c35.552-0.027,71.104-0.055,106.655-0.083   c-0.404,15.051,2.381,13.296-13.064,13.345c-26.843,0.086-53.686,0.124-80.528-0.015C80.173,121.551,81.734,124.108,81.714,108.38z   "/>
	<path fill-rule="evenodd" clip-rule="evenodd" fill="#D3C7B7" d="M148.463,161.509c-0.043,5.832-0.657,11.729,0.007,17.478   c0.936,8.099-2.551,9.894-9.877,9.483c-9.967-0.558-19.987-0.154-29.984-0.164c0-4.429,0-8.857,0-13.286   c4.416-0.037,8.832-0.075,13.247-0.112c14.705-0.171,13.238,2.902,12.979-13.068c0.077-4.412,0.153-8.825,0.229-13.237   C148.127,147.931,148.127,147.931,148.463,161.509z"/>
	<path fill-rule="evenodd" clip-rule="evenodd" fill="#D3C7B7" d="M215.13,161.509c-0.044,6.901-0.302,13.807-0.06,20.696   c0.165,4.707-1.66,6.335-6.279,6.195c-8.273-0.249-16.602-0.59-24.828,0.086c-7.539,0.62-10.118-2.178-8.988-9.316   c0.214-1.35,0.073-2.756,0.096-4.134c4.484-0.044,8.969-0.087,13.453-0.129c14.705-0.171,13.238,2.902,12.979-13.068   c0.077-4.412,0.153-8.825,0.229-13.237C214.794,147.931,214.794,147.931,215.13,161.509z"/>
	<path fill-rule="evenodd" clip-rule="evenodd" fill="#C5C5C5" d="M135.09,255c-22.249-0.091-44.498-0.184-66.747-0.275   c0.001-4.261,0-8.521,0-12.783c22.249-0.091,44.498-0.182,66.747-0.274l-0.189-0.067c0,4.489,0,8.979,0,13.467L135.09,255z"/>
	<path fill-rule="evenodd" clip-rule="evenodd" fill="#B5A288" d="M135.064,148.602c-0.076,4.412-0.152,8.825-0.228,13.236   c-4.357-0.049-8.715-0.098-13.072-0.146c-4.386,0.006-8.772,0.015-13.157,0.022c-0.079-0.549-0.212-1.097-0.228-1.647   c-0.332-11.733-0.33-11.758,11.721-11.721C125.089,148.361,130.077,148.512,135.064,148.602z"/>
	<path fill-rule="evenodd" clip-rule="evenodd" fill="#B5A288" d="M201.73,148.602c-0.075,4.412-0.151,8.825-0.228,13.236   c-4.356-0.049-8.715-0.098-13.072-0.146c-4.425,0.145-8.85,0.291-13.275,0.436l-0.278-0.64   c0.308-13.154,0.308-13.175,13.633-13.141C192.917,148.358,197.324,148.512,201.73,148.602z"/>
	<path fill-rule="evenodd" clip-rule="evenodd" fill="#E15B26" d="M68.344,241.941c0,4.262,0.001,8.522,0,12.783   c-4.461,0.106-8.923,0.21-13.384,0.316c0-4.472,0-8.944,0-13.415C59.42,241.731,63.883,241.836,68.344,241.941z"/>
	<path fill-rule="evenodd" clip-rule="evenodd" fill="#353535" d="M228.128,95.107c-13.172-0.272-13.172-0.272-13.098-13.477   c4.419,0.028,8.838,0.055,13.256,0.083C228.233,86.178,228.181,90.643,228.128,95.107z"/>
	<path fill-rule="evenodd" clip-rule="evenodd" fill="#CEBCA5" d="M108.607,161.714c4.385-0.008,8.771-0.017,13.157-0.022   c0.031,4.404,0.063,8.81,0.093,13.216c-4.416,0.037-8.831,0.075-13.247,0.112C108.609,170.584,108.607,166.149,108.607,161.714z"/>
	<path fill-rule="evenodd" clip-rule="evenodd" fill="#353535" d="M215.036,81.636c-13.207,0.075-13.207,0.075-13.477-13.097   c4.464-0.052,8.929-0.106,13.394-0.158C214.98,72.799,215.008,77.217,215.036,81.636z"/>
	<path fill-rule="evenodd" clip-rule="evenodd" d="M134.901,255.066c0-4.488,0-8.978,0-13.467   c11.652,0.023,23.315,0.354,34.951-0.062c5.853-0.208,5.182,3.132,5.182,6.795c0,3.664,0.671,7.004-5.182,6.796   C158.216,254.714,146.553,255.044,134.901,255.066z"/>
	<path fill-rule="evenodd" clip-rule="evenodd" d="M148.988,201.667c1.929,0,3.883,0.2,5.781-0.039   c5.057-0.635,7.293,0.75,7.104,6.539c-0.167,5.127-1.075,7.546-6.767,6.934c-4.63-0.498-9.4-0.499-14.03,0.002   c-5.496,0.596-6.169-1.88-6.246-6.595c-0.084-5.173,1.055-7.748,6.727-6.901C143.984,201.968,146.509,201.667,148.988,201.667z"/>
	<path fill-rule="evenodd" clip-rule="evenodd" fill="#CEBCA5" d="M175.155,162.127c4.426-0.145,8.851-0.291,13.274-0.436   c0.031,4.404,0.063,8.81,0.094,13.216c-4.484,0.042-8.969,0.085-13.453,0.129C175.1,170.732,175.128,166.431,175.155,162.127z"/>
	<path fill-rule="evenodd" clip-rule="evenodd" fill="#596570" d="M121.857,174.907c-0.031-4.406-0.063-8.812-0.093-13.216   c4.358,0.049,8.716,0.098,13.073,0.146C135.095,177.81,136.562,174.736,121.857,174.907z"/>
	<path fill-rule="evenodd" clip-rule="evenodd" fill="#596570" d="M188.523,174.907c-0.03-4.406-0.063-8.812-0.094-13.216   c4.358,0.049,8.717,0.098,13.073,0.146C201.762,177.81,203.229,174.736,188.523,174.907z"/>
</g>
</svg>